name C:/MyDriveSym/Projects/mobilecap/Data\Session20210825_0002\mocap\ForceDataProcessed\walking3_forces.mot
datacolumns 19
datarows 27
range 0.66450000 0.67750000
endheader 
time	R_ground_force_vx	R_ground_force_vy	R_ground_force_vz	R_ground_force_px	R_ground_force_py	R_ground_force_pz	R_ground_torque_x	R_ground_torque_y	R_ground_torque_z	L_ground_force_vx	L_ground_force_vy	L_ground_force_vz	L_ground_force_px	L_ground_force_py	L_ground_force_pz	L_ground_torque_x	L_ground_torque_y	L_ground_torque_z	
          0.66450000	         65.09175300	        274.01809000	         -3.88196100	          0.33224800	          0.00600000	         -0.12708500	          0.00000000	         -0.82790600	          0.00000000	        -96.70715300	        519.46027000	          1.59165100	          0.83864200	          0.00600000	         -0.20727400	          0.00000000	         -0.79255400	          0.00000000	
          0.66500000	         64.64571100	        271.62336600	         -3.81075700	          0.33246600	          0.00600000	         -0.12709900	          0.00000000	         -0.82348200	          0.00000000	        -97.12906500	        521.63663200	          1.72914400	          0.83880200	          0.00600000	         -0.20729300	          0.00000000	         -0.80333700	          0.00000000	
          0.66550000	         64.19836600	        269.23371300	         -3.74045700	          0.33268500	          0.00600000	         -0.12711300	          0.00000000	         -0.81905900	          0.00000000	        -97.54659400	        523.80170500	          1.86682600	          0.83896200	          0.00600000	         -0.20731200	          0.00000000	         -0.81412900	          0.00000000	
          0.66600000	         63.74977200	        266.84928400	         -3.67105800	          0.33290600	          0.00600000	         -0.12712700	          0.00000000	         -0.81463500	          0.00000000	        -97.95970800	        525.95538900	          2.00467900	          0.83912100	          0.00600000	         -0.20733200	          0.00000000	         -0.82493000	          0.00000000	
          0.66650000	         63.29998200	        264.47023000	         -3.60255600	          0.33312700	          0.00600000	         -0.12714100	          0.00000000	         -0.81021100	          0.00000000	        -98.36837200	        528.09758600	          2.14268600	          0.83927900	          0.00600000	         -0.20735100	          0.00000000	         -0.83573800	          0.00000000	
          0.66700000	         62.84905200	        262.09669800	         -3.53494900	          0.33335000	          0.00600000	         -0.12715500	          0.00000000	         -0.80578600	          0.00000000	        -98.77255700	        530.22819900	          2.28082700	          0.83943700	          0.00600000	         -0.20737000	          0.00000000	         -0.84655100	          0.00000000	
          0.66750000	         62.39703400	        259.72884000	         -3.46823400	          0.33357400	          0.00600000	         -0.12716900	          0.00000000	         -0.80136000	          0.00000000	        -99.17222900	        532.34713300	          2.41908500	          0.83959400	          0.00600000	         -0.20738900	          0.00000000	         -0.85736700	          0.00000000	
          0.66800000	         61.94398200	        257.36680000	         -3.40240700	          0.33379900	          0.00600000	         -0.12718300	          0.00000000	         -0.79693400	          0.00000000	        -99.56735900	        534.45429400	          2.55744100	          0.83975100	          0.00600000	         -0.20740700	          0.00000000	         -0.86818400	          0.00000000	
          0.66850000	         61.48995200	        255.01072700	         -3.33746500	          0.33402500	          0.00600000	         -0.12719700	          0.00000000	         -0.79250700	          0.00000000	        -99.95791800	        536.54959200	          2.69587800	          0.83990700	          0.00600000	         -0.20742600	          0.00000000	         -0.87900100	          0.00000000	
          0.66900000	         61.03499600	        252.66076500	         -3.27340300	          0.33425300	          0.00600000	         -0.12721100	          0.00000000	         -0.78807800	          0.00000000	       -100.34387600	        538.63293600	          2.83437700	          0.84006200	          0.00600000	         -0.20744500	          0.00000000	         -0.88981600	          0.00000000	
          0.66950000	         60.57917000	        250.31705800	         -3.21021700	          0.33448200	          0.00600000	         -0.12722400	          0.00000000	         -0.78364800	          0.00000000	       -100.72520500	        540.70423600	          2.97291900	          0.84021700	          0.00600000	         -0.20746300	          0.00000000	         -0.90062700	          0.00000000	
          0.67000000	         60.12252600	        247.97974800	         -3.14790300	          0.33471200	          0.00600000	         -0.12723800	          0.00000000	         -0.77921700	          0.00000000	       -101.10187700	        542.76340500	          3.11148500	          0.84037100	          0.00600000	         -0.20748100	          0.00000000	         -0.91143300	          0.00000000	
          0.67050000	         59.66511900	        245.64897700	         -3.08645600	          0.33494300	          0.00600000	         -0.12725200	          0.00000000	         -0.77478500	          0.00000000	       -101.47386700	        544.81035800	          3.25005800	          0.84052400	          0.00600000	         -0.20750000	          0.00000000	         -0.92223200	          0.00000000	
          0.67100000	         59.20700300	        243.32488600	         -3.02587100	          0.33517500	          0.00600000	         -0.12726500	          0.00000000	         -0.77035100	          0.00000000	       -101.84114800	        546.84500900	          3.38861700	          0.84067700	          0.00600000	         -0.20751800	          0.00000000	         -0.93302100	          0.00000000	
          0.67150000	         58.74823200	        241.00761300	         -2.96614300	          0.33540900	          0.00600000	         -0.12727900	          0.00000000	         -0.76591600	          0.00000000	       -102.20369400	        548.86727600	          3.52714600	          0.84082900	          0.00600000	         -0.20753600	          0.00000000	         -0.94380100	          0.00000000	
          0.67200000	         58.28885900	        238.69729500	         -2.90726700	          0.33564400	          0.00600000	         -0.12729200	          0.00000000	         -0.76147900	          0.00000000	       -102.56148100	        550.87707700	          3.66562300	          0.84098100	          0.00600000	         -0.20755400	          0.00000000	         -0.95456900	          0.00000000	
          0.67250000	         57.82893900	        236.39406900	         -2.84923800	          0.33588100	          0.00600000	         -0.12730600	          0.00000000	         -0.75704100	          0.00000000	       -102.91448500	        552.87433100	          3.80403200	          0.84113200	          0.00600000	         -0.20757200	          0.00000000	         -0.96532200	          0.00000000	
          0.67300000	         57.36852400	        234.09806900	         -2.79204900	          0.33611900	          0.00600000	         -0.12731900	          0.00000000	         -0.75260200	          0.00000000	       -103.26268200	        554.85895900	          3.94235300	          0.84128300	          0.00600000	         -0.20759000	          0.00000000	         -0.97606100	          0.00000000	
          0.67350000	         56.90766800	        231.80942900	         -2.73569600	          0.33635800	          0.00600000	         -0.12733200	          0.00000000	         -0.74816100	          0.00000000	       -103.60604900	        556.83088400	          4.08056600	          0.84143300	          0.00600000	         -0.20760700	          0.00000000	         -0.98678200	          0.00000000	
          0.67400000	         56.44642400	        229.52828100	         -2.68017100	          0.33659900	          0.00600000	         -0.12734500	          0.00000000	         -0.74371900	          0.00000000	       -103.94456500	        558.79002800	          4.21865300	          0.84158200	          0.00600000	         -0.20762500	          0.00000000	         -0.99748500	          0.00000000	
          0.67450000	         55.98484600	        227.25475400	         -2.62546900	          0.33684100	          0.00600000	         -0.12735800	          0.00000000	         -0.73927500	          0.00000000	       -104.27820700	        560.73631800	          4.35659600	          0.84173100	          0.00600000	         -0.20764300	          0.00000000	         -1.00816800	          0.00000000	
          0.67500000	         55.52298600	        224.98897900	         -2.57158300	          0.33708500	          0.00600000	         -0.12737100	          0.00000000	         -0.73483000	          0.00000000	       -104.60695500	        562.66967800	          4.49437400	          0.84187900	          0.00600000	         -0.20766000	          0.00000000	         -1.01882900	          0.00000000	
          0.67550000	         55.06089800	        222.73108100	         -2.51850800	          0.33733000	          0.00600000	         -0.12738400	          0.00000000	         -0.73038400	          0.00000000	       -104.93078800	        564.59003700	          4.63197000	          0.84202700	          0.00600000	         -0.20767800	          0.00000000	         -1.02946700	          0.00000000	
          0.67600000	         54.59863300	        220.48118800	         -2.46623500	          0.33757700	          0.00600000	         -0.12739700	          0.00000000	         -0.72593600	          0.00000000	       -105.24968700	        566.49732200	          4.76936500	          0.84217400	          0.00600000	         -0.20769500	          0.00000000	         -1.04007900	          0.00000000	
          0.67650000	         54.13624500	        218.23942400	         -2.41475900	          0.33782600	          0.00600000	         -0.12741000	          0.00000000	         -0.72148800	          0.00000000	       -105.56363300	        568.39146400	          4.90653900	          0.84232000	          0.00600000	         -0.20771200	          0.00000000	         -1.05066600	          0.00000000	
          0.67700000	         53.67378500	        216.00591100	         -2.36407200	          0.33807600	          0.00600000	         -0.12742200	          0.00000000	         -0.71703800	          0.00000000	       -105.87260800	        570.27239400	          5.04347500	          0.84246600	          0.00600000	         -0.20772900	          0.00000000	         -1.06122400	          0.00000000	
          0.67750000	         53.21130600	        213.78077100	         -2.31416800	          0.33832700	          0.00600000	         -0.12743500	          0.00000000	         -0.71258800	          0.00000000	       -106.17659300	        572.14004400	          5.18015400	          0.84261200	          0.00600000	         -0.20774600	          0.00000000	         -1.07175300	          0.00000000	
